<svg width="180" height="114" viewBox="0 0 810 114" fill="none" xmlns="http://www.w3.org/2000/svg">
<path d="M56.6641 100.764C46.1163 100.763 35.9223 96.9602 27.9516 90.052C19.9809 83.1438 14.7678 73.5936 13.2684 63.1529H56.6641V50.676H13.2684C14.3507 43.145 17.3742 36.0253 22.0417 30.0167C26.7091 24.0082 32.8598 19.3176 39.8891 16.4062C46.9184 13.4948 54.5843 12.4628 62.1333 13.4115C69.6824 14.3602 76.8545 17.257 82.9449 21.8172L92.0698 12.7039C84.1537 6.35976 74.6789 2.25804 64.6357 0.827421C54.5924 -0.603201 44.3493 0.689771 34.9766 4.57124C25.6038 8.4527 17.4456 14.7802 11.3543 22.8925C5.26298 31.0048 1.46222 40.6042 0.349151 50.6876C-0.116384 54.8336 -0.116384 59.0186 0.349151 63.1645C1.4622 73.248 5.26267 82.8475 11.3535 90.9602C17.4444 99.0728 25.6021 105.401 34.9745 109.283C44.3468 113.166 54.5898 114.46 64.6333 113.031C74.6768 111.602 84.1523 107.502 92.0698 101.16L82.9449 92.0349C75.3644 97.7203 66.1397 100.784 56.6641 100.764Z" fill="#0D2E4C"/>
<path opacity="0.25" d="M100.514 56.9319C100.532 66.3683 97.492 75.5565 91.8486 83.1195C91.8228 83.1483 91.8086 83.1856 91.8086 83.2242C91.8086 83.2629 91.8228 83.3002 91.8486 83.329L100.741 92.227C100.757 92.2444 100.776 92.2584 100.797 92.268C100.819 92.2775 100.842 92.2824 100.866 92.2824C100.889 92.2824 100.913 92.2775 100.934 92.268C100.956 92.2584 100.975 92.2444 100.991 92.227C108.968 82.2055 113.311 69.7754 113.311 56.9668C113.311 44.1582 108.968 31.7281 100.991 21.7066C100.975 21.6892 100.956 21.6752 100.934 21.6656C100.913 21.6561 100.889 21.6511 100.866 21.6511C100.842 21.6511 100.819 21.6561 100.797 21.6656C100.776 21.6752 100.757 21.6892 100.741 21.7066L91.8486 30.5988C91.8235 30.6291 91.8098 30.6671 91.8098 30.7064C91.8098 30.7458 91.8235 30.7838 91.8486 30.8141C97.4777 38.3579 100.517 47.5194 100.514 56.9319Z" fill="#0D2E4C"/>
<path d="M182.498 100.054C182.062 99.5731 181.805 98.9565 181.771 98.3082V0H169.189V98.1919C169.189 103.197 169.189 113.613 179.577 113.613H197.827V101.02H185.693C184.209 101.02 183.133 100.694 182.498 100.054Z" fill="#0D2E4C"/>
<path d="M141.57 100.054C141.132 99.5747 140.874 98.9572 140.843 98.3082V0H128.261V98.1919C128.261 103.197 128.261 113.613 138.649 113.613H156.916V101.02H144.759C143.275 101.02 142.204 100.694 141.57 100.054Z" fill="#0D2E4C"/>
<path d="M209.786 0.250244H222.368V113.608H209.786V0.250244Z" fill="#0D2E4C"/>
<path d="M303.334 32.6181C303.334 1.50725 273.364 0.250244 273.364 0.250244H243.87V113.608H256.458V64.9802H273.387C273.387 64.9802 303.334 63.729 303.334 32.6181ZM256.458 52.4043V12.8319H273.334C273.334 12.8319 290.723 12.7796 290.723 32.589C290.723 52.3985 273.334 52.3752 273.334 52.3752L256.458 52.4043Z" fill="#0D2E4C"/>
<path d="M341.475 51.8632C321.648 41.5685 322.852 32.624 322.852 28.7249C322.852 24.8259 322.852 12.8436 338.361 12.8436C353.87 12.8436 353.87 24.8259 353.87 24.8259V32.624H366.428C366.428 32.624 366.428 32.624 366.428 24.8259C366.428 12.8436 360.138 0.256104 338.332 0.256104C316.527 0.256104 310.236 13.0124 310.236 28.7249C310.236 44.4375 310.323 49.8496 335.434 62.9143C355.261 73.209 353.841 81.1409 353.841 85.0283C353.841 88.9157 353.841 100.91 338.332 100.91C322.823 100.91 322.847 88.939 322.847 88.939V81.1467H310.288C310.288 81.1467 310.288 76.9567 310.288 88.939C310.288 100.921 316.579 113.509 338.384 113.509C360.19 113.509 366.481 100.753 366.481 85.0458C366.481 69.339 366.591 64.9279 341.475 51.8632Z" fill="#0D2E4C"/>
<path d="M442.32 51.8632C422.487 41.5685 423.698 32.624 423.698 28.7249C423.698 24.8259 423.698 12.8436 439.213 12.8436C454.727 12.8436 454.721 24.8259 454.721 24.8259V32.624H467.268C467.268 32.624 467.303 32.624 467.303 24.8259C467.303 12.8436 461.006 0.256104 439.207 0.256104C417.407 0.256104 411.11 13.0124 411.11 28.7249C411.11 44.4375 411.198 49.8496 436.309 62.9143C456.141 73.209 454.721 81.1409 454.721 85.0283C454.721 88.9157 454.721 100.91 439.213 100.91C423.704 100.91 423.692 88.939 423.692 88.939V81.1467H411.139C411.139 81.1467 411.139 76.9567 411.139 88.939C411.139 100.921 417.43 113.509 439.236 113.509C461.041 113.509 467.332 100.753 467.332 85.0458C467.332 69.339 467.431 64.9279 442.32 51.8632Z" fill="#0D2E4C"/>
<path d="M381.268 0.250244H393.85V113.608H381.268V0.250244Z" fill="#0D2E4C"/>
<g opacity="0.66">
<path opacity="0.66" d="M547.495 0.250244H515.966V113.608H547.495C575.377 113.608 575.377 69.0829 575.377 56.9319C575.377 44.7808 575.377 0.250244 547.495 0.250244ZM547.495 101.02H528.373V12.8378H547.501C562.981 12.8378 562.981 44.775 562.981 56.9319C562.975 68.9316 562.975 101.02 547.495 101.02Z" fill="#0D2E4C"/>
<path opacity="0.66" d="M634.403 60.7843C642.079 56.6816 649.965 48.5635 649.965 32.6181C649.965 1.50725 619.994 0.250244 619.994 0.250244H590.501V113.608H603.083V64.9802H619.994C623.8 64.9802 632.855 72.7317 632.855 82.6248V113.608H645.437V82.6248C645.437 69.6881 635.137 61.4769 634.403 60.7843ZM619.994 52.3985H603.083V12.8261H619.994C619.994 12.8261 637.377 12.7737 637.377 32.5832C637.377 52.3927 619.994 52.3985 619.994 52.3985Z" fill="#0D2E4C"/>
<path opacity="0.66" d="M665.607 0.250244H678.189V113.608H665.607V0.250244Z" fill="#0D2E4C"/>
<path opacity="0.66" d="M810 12.8378V0.250244H761.227V113.608H810V101.02H773.815V63.4497H797.18V50.8622H773.815V12.8378H810Z" fill="#0D2E4C"/>
<path opacity="0.66" d="M738.787 0.250244L721.719 83.0729L704.65 0.250244H692.063L715.428 113.608H728.01L751.369 0.250244H738.787Z" fill="#0D2E4C"/>
</g>
</svg>
