<svg width="189" height="48" viewBox="0 0 189 48" fill="none" xmlns="http://www.w3.org/2000/svg">
<path d="M3.85027 43.2163L0 0H42.3296L38.4793 43.193L21.1298 48" fill="#E44D26"/>
<path d="M21.165 44.3247V3.54688H38.4679L35.166 40.4161" fill="#F16529"/>
<path d="M7.86426 8.83228H21.1652V14.1293H13.6747L14.1647 19.5547H21.1652V24.8401H9.31102L7.86426 8.83228ZM9.54437 27.5002H14.8647L15.2381 31.7355L21.1652 33.3223V38.8527L10.2911 35.8191" fill="#EBEBEB"/>
<path d="M34.4192 8.83228H21.1416V14.1293H33.9292L34.4192 8.83228ZM33.4508 19.5547H21.1416V24.8517H27.6754L27.057 31.7355L21.1416 33.3223V38.8294L31.9924 35.8191" fill="white"/>
<path d="M54 9H64.4934V19.2435H74.1656V9H84.659V40H74.1656V29.6667H64.5847V40H54V9ZM98.5286 19.3333H89.267V9H118.329V19.3333H109.022V40H98.5286V19.3333ZM122.937 9H133.932L140.685 19.9174L147.437 9H158.432V40H147.939V24.6348L140.593 35.7768L133.248 24.6348V40H122.937V9ZM163.633 9H174.127V29.7565H189V40H163.633" fill="black"/>
</svg>
