<svg width="181" height="48" viewBox="0 0 181 48" fill="none" xmlns="http://www.w3.org/2000/svg">
<g clip-path="url(#clip0_431_6836)">
<path d="M27.4772 30.7563C24.1012 34.1893 20.647 35.9058 17.1145 35.9058C16.089 35.9058 15.1024 35.7735 14.1553 35.51C13.2077 35.2468 12.0541 34.8019 10.694 34.175C9.33355 33.5484 8.1334 33.0929 7.09395 32.8085C5.17059 34.9168 3.43281 35.971 1.8804 35.971C1.33879 35.971 0.889876 35.794 0.534244 35.438C0.178214 35.0797 0 34.6461 0 34.133C0 33.051 0.530465 32.0992 1.59179 31.2808C2.65272 30.4613 4.15203 29.895 6.08931 29.5822C6.90121 28.4703 7.42094 27.3843 7.64908 26.323C7.87682 25.2629 8.05483 23.5145 8.18332 21.078C8.42538 16.0652 9.76775 12.1371 12.211 9.29522C14.6535 6.45375 17.3068 5.03281 20.1698 5.03281C22.1355 5.03281 23.7486 5.65616 25.009 6.90246C26.27 8.14896 26.9002 9.74076 26.9002 11.678C26.9002 13.9141 26.2378 15.8728 24.9131 17.5535C23.5885 19.2342 22.0641 20.0746 20.3408 20.0746C19.4434 20.0746 18.7383 19.8279 18.2256 19.3367C17.7128 18.8454 17.4564 18.1711 17.4564 17.3178C17.4564 16.8763 17.5419 16.3631 17.713 15.7783C18.0975 16.2199 18.5814 16.4407 19.1658 16.4407C20.1324 16.4407 20.9817 15.8639 21.7077 14.7103C22.4337 13.5566 22.7977 12.1822 22.7977 10.5851C22.7977 9.35986 22.5192 8.3952 21.9643 7.68911C21.4093 6.98302 20.6476 6.63096 19.6809 6.63096C18.5134 6.63096 17.6064 7.05064 16.958 7.89199C16.3096 8.73333 15.8581 9.73618 15.6015 10.9053C15.3449 12.0729 15.0724 13.9604 14.782 16.568C14.4916 19.1736 14.0083 21.4848 13.33 23.5C12.6498 25.5149 11.3828 27.4909 9.52509 29.4272C10.7364 29.3417 11.7866 29.4133 12.6757 29.642C13.5647 29.8694 14.8397 30.3004 16.5005 30.9339C18.1593 31.5684 19.5874 31.8846 20.7828 31.8846C23.1179 31.8846 25.3475 30.6892 27.4698 28.2965V30.7529L27.4772 30.7563ZM43.4376 30.7563C41.6285 32.537 40.0046 33.8511 38.5662 34.6981C37.1274 35.5454 35.539 35.971 33.8016 35.971C31.8643 35.971 30.3009 35.3524 29.1115 34.1133C27.9221 32.8741 27.3274 31.2432 27.3274 29.2204C27.3274 26.2011 28.3746 23.4702 30.4684 21.0277C32.5622 18.5852 34.884 17.364 37.4339 17.364C38.7585 17.364 39.8195 17.7061 40.6175 18.3903C41.415 19.0745 41.8148 19.9715 41.8148 21.0834C41.8148 24.0331 38.6822 26.4258 32.4148 28.2637C32.9857 31.0423 34.4734 32.4306 36.8801 32.4306C37.8209 32.4306 38.718 32.178 39.5732 31.6728C40.4285 31.1676 41.7174 30.0458 43.4418 28.3074V30.7658L43.4376 30.7563ZM32.2416 26.8035C35.888 25.778 37.7113 23.8837 37.7113 21.12C37.7113 19.7526 37.2127 19.0687 36.2156 19.0687C35.2756 19.0687 34.3784 19.7848 33.5237 21.2161C32.669 22.6475 32.2418 24.5102 32.2418 26.8035H32.2416ZM66.2568 30.7563C63.9774 32.9217 62.3468 34.3319 61.3639 34.9869C60.3809 35.6418 59.4409 35.9694 58.5435 35.9694C56.2927 35.9694 55.2318 33.9824 55.3599 30.0084C53.9358 32.0455 52.623 33.5482 51.4197 34.5167C50.2163 35.4833 48.9732 35.9686 47.6923 35.9686C46.4392 35.9686 45.3751 35.3799 44.498 34.2044C43.6228 33.0289 43.1852 31.5869 43.1852 29.8783C43.1852 27.7402 43.774 25.7034 44.9495 23.7661C46.125 21.8289 47.6306 20.2615 49.4685 19.0642C51.3063 17.8668 52.9293 17.2681 54.3395 17.2681C56.1197 17.2681 57.3668 18.0876 58.0788 19.7245L62.4467 17.3099H63.646L61.7625 23.5712C60.7918 26.7198 60.3065 28.8779 60.3065 30.0454C60.3065 31.2686 60.7401 31.8812 61.6093 31.8812C62.1642 31.8812 62.7768 31.5849 63.4451 30.9942C64.1134 30.4034 65.0542 29.5024 66.2635 28.2911V30.7495L66.2568 30.7563ZM50.6167 31.9314C52.0408 31.9314 53.3834 30.7181 54.6444 28.2895C55.9049 25.861 56.5352 23.6213 56.5352 21.5707C56.5352 20.7731 56.357 20.1506 56.0009 19.701C55.6449 19.2535 55.1675 19.0288 54.5695 19.0288C53.1449 19.0288 51.7952 20.2401 50.5207 22.6627C49.2457 25.0852 48.6092 27.3149 48.6092 29.3516C48.6092 30.1214 48.7982 30.7439 49.1761 31.2213C49.554 31.6987 50.0334 31.9373 50.6181 31.9373L50.6167 31.9314ZM83.5847 30.7579C82.1049 32.4246 80.6394 33.7095 79.1882 34.6145C77.7371 35.5195 76.4422 35.971 75.3037 35.971C74.7631 35.971 74.0234 35.7661 73.0846 35.3544C72.4839 38.4871 71.9545 41.8704 71.4968 45.5003C70.0138 45.7012 68.2315 46.0075 66.15 46.4212C66.6055 42.5188 67.3963 37.4548 68.5213 31.2312C68.3641 30.9607 68.0865 30.2785 67.6879 29.1806L66.2568 30.7618H65.7655V28.8385L69.8386 24.6158C70.6127 20.795 71.242 18.0283 71.7265 16.3198C72.2106 14.6112 72.8873 12.7197 73.7563 10.6471C74.6249 8.57461 75.1734 7.38519 75.4012 7.07889C75.6291 6.77258 76.1813 6.4802 77.0572 6.20373C77.9332 5.92726 78.8696 5.66272 79.8669 5.4141C80.8638 5.16547 81.3978 5.04017 81.4694 5.04017C82.0124 5.04017 82.454 5.39222 82.7941 6.09831C83.1362 6.80242 83.3072 7.73128 83.3072 8.8843C83.3072 10.8773 82.7821 12.798 81.73 14.6478C80.6778 16.4976 78.6888 18.773 75.763 21.4768L73.9669 30.4074C74.6631 31.9011 75.7093 32.6484 77.1016 32.6484C79.0926 32.6484 81.2546 31.2024 83.5857 28.3104V30.7682L83.5847 30.7579ZM76.4092 18.5791C78.0744 17.1261 79.3802 15.5629 80.3271 13.889C81.2739 12.2153 81.7473 10.6732 81.7473 9.2626C81.7473 8.66451 81.6371 8.17303 81.4171 7.78876C81.1969 7.40389 80.9238 7.21195 80.5972 7.21195C79.9723 7.21195 79.3366 8.03142 78.6906 9.67035C78.0442 11.3093 77.2838 14.2788 76.4092 18.5791V18.5791ZM97.7078 30.7577C95.7705 32.5378 94.0719 33.8525 92.612 34.699C91.1516 35.5464 89.7597 35.971 88.4351 35.971C86.9105 35.971 85.6819 35.3803 84.7495 34.1988C83.8162 33.0174 83.3498 31.4281 83.3498 29.4352C83.3498 26.4437 83.9978 22.8556 85.294 18.6668C86.5901 14.4799 88.1642 10.6193 90.0159 7.08684L95.4429 5.07796C95.6139 5.02227 95.742 4.99243 95.8276 4.99243C96.2393 4.99243 96.5774 5.29675 96.8419 5.9014C97.1045 6.50804 97.2358 7.32353 97.2358 8.34786C97.2358 11.2538 96.5655 14.0682 95.2269 16.7892C93.8883 19.5101 91.7939 22.416 88.9456 25.5069C88.8303 26.9887 88.7746 28.0071 88.7746 28.562C88.7746 29.8012 89.0013 30.7837 89.4588 31.5117C89.9143 32.2377 90.5189 32.6017 91.2747 32.6017C92.0445 32.6017 92.862 32.3232 93.7312 31.7683C94.5984 31.2133 95.923 30.0597 97.7052 28.3074V30.765L97.7078 30.7577ZM89.5246 22.4019C91.3332 20.391 92.8005 18.1371 93.9259 15.6405C95.0509 13.1443 95.6137 10.9978 95.6137 9.20015C95.6137 8.67247 95.5352 8.24822 95.3786 7.92719C95.2215 7.60617 95.0226 7.44586 94.7804 7.44586C94.2533 7.44586 93.4875 8.75799 92.4835 11.3827C91.4794 14.0062 90.4929 17.6798 89.5244 22.4017L89.5246 22.4019ZM113.69 30.7563C111.88 32.537 110.257 33.8511 108.818 34.6981C107.38 35.5454 105.793 35.971 104.054 35.971C102.117 35.971 100.554 35.3524 99.3644 34.1133C98.175 32.8741 97.5803 31.2432 97.5803 29.2204C97.5803 26.2011 98.6285 23.4702 100.721 21.0277C102.815 18.5852 105.136 17.364 107.686 17.364C109.011 17.364 110.073 17.7061 110.871 18.3903C111.668 19.0745 112.068 19.9715 112.068 21.0834C112.068 24.0331 108.935 26.4258 102.668 28.2637C103.239 31.0423 104.727 32.4306 107.133 32.4306C108.074 32.4306 108.971 32.178 109.827 31.6728C110.682 31.1676 111.971 30.0458 113.695 28.3074V30.7658L113.69 30.7563ZM102.493 26.8035C106.14 25.778 107.963 23.8837 107.963 21.12C107.963 19.7526 107.465 19.0687 106.467 19.0687C105.527 19.0687 104.63 19.7848 103.776 21.2161C102.92 22.6475 102.493 24.5102 102.493 26.8035H102.493ZM125.996 30.7563C124.202 32.537 122.649 33.8511 121.339 34.6981C120.028 35.5454 118.782 35.971 117.599 35.971C116.374 35.971 115.381 35.4559 114.619 34.4216C113.857 33.3893 113.476 32.0328 113.476 30.3521C113.476 28.8723 113.84 26.9151 114.572 24.4846L115.479 21.2505L113.838 21.336L114.522 17.9826L116.553 17.897L118.558 11.2299L124.264 10.0584L122.056 17.4893L125.074 17.3182L124.368 20.61L121.052 20.8666L119.628 25.6541C119.133 27.3189 118.886 28.6416 118.886 29.6261C118.886 30.2964 119.053 30.8414 119.387 31.2631C119.722 31.6847 120.153 31.8936 120.682 31.8936C121.409 31.8936 122.13 31.6628 122.842 31.1994C123.556 30.738 124.604 29.7713 125.989 28.3054V30.7618L125.996 30.7563Z" fill="#6F6F6E"/>
<path d="M134.122 18.3772C134.566 18.8959 143.291 21.8018 146.324 25.3327C149.357 28.864 150.681 32.0153 150.253 35.0454C149.825 38.0754 147.972 38.0253 147.162 39.1288C146.353 40.2321 145.235 41.5927 143.087 41.4479C140.274 41.2594 137.374 39.854 135.28 34.9758C133.185 30.0973 133.347 25.5147 133.514 22.9722C133.681 20.4302 134.118 18.3772 134.118 18.3772H134.122Z" fill="url(#paint0_linear_431_6836)"/>
<path d="M133.598 20.0098L146.663 39.4874L146.061 40.1597" fill="url(#paint1_linear_431_6836)"/>
<path fill-rule="evenodd" clip-rule="evenodd" d="M83.5226 47.0819L83.6455 46.2193C87.1303 44.3626 91.471 43.6467 95.0037 41.8545C96.0634 42.3318 96.5346 41.6436 97.665 41.7073C98.0751 42.0772 97.149 42.5725 98.2565 42.4969C100.773 42.8311 103.223 42.3617 105.697 42.1508C108.307 41.9281 110.899 42.1767 113.458 42.0255C114.276 41.9778 115.535 40.846 116.537 41.4089C116.991 42.2304 115.058 42.302 115.577 43.209C120.7 44.4143 133.515 49.5101 135.707 43.9668C135.737 44.3049 135.323 44.9732 135.928 44.8797C140.248 42.9464 147.59 38.7715 148.882 37.6776C150.303 36.4762 152.196 36.514 154.054 36.0864C157.399 35.3166 160.969 34.533 163.865 32.8463C165.656 34.0894 169.403 34.708 171.406 34.2744C173.496 33.8209 176.74 30.3501 178.477 29.1229C179.159 28.6416 180.157 27.7048 180.891 28.2358C180.398 28.5739 180.979 29.5645 180.374 29.3934C180.058 28.7888 179.427 29.4869 178.968 29.3695C177.22 30.8036 175.404 32.1462 173.621 33.5345C172.79 34.0457 174.423 34.5747 173.448 34.7418C168.846 35.6568 161.837 33.3654 158.935 36.5458C154.338 38.1191 149.989 38.5189 145.458 40.9614C142.854 42.3656 139.668 44.9195 136.958 46.2621C136.498 46.4908 135.826 46.5704 135.283 46.9045C134.622 47.3103 134.46 47.8195 133.903 47.9396C132.515 48.2385 129.646 47.5139 127.84 47.2514C121.818 46.3762 115.387 43.9206 109.704 43.6096C107.456 43.4862 104.803 43.8423 102.263 43.9564C96.8626 44.2003 93.4853 44.3284 89.1553 45.7843C87.385 46.3804 84.6621 47.9583 83.5137 47.0931L83.5226 47.0819Z" fill="#3C3C3B"/>
<path d="M166.969 0C166.362 0.983359 152.529 8.11649 148.377 14.8124C144.225 21.5084 143.041 26.7806 144.546 31.7368C146.051 36.6922 148.928 36.469 150.567 38.1032C152.208 39.7381 154.432 41.7217 157.986 40.9208C162.64 39.8716 167.124 36.7658 169.355 28.0619C171.585 19.3577 170.122 11.7357 169.179 7.52715C168.237 3.31904 166.969 0 166.969 0H166.969Z" fill="url(#paint2_linear_431_6836)"/>
<path d="M166.733 1.46973L149.958 37.4492L150.943 38.4378" fill="url(#paint3_linear_431_6836)"/>
</g>
<defs>
<linearGradient id="paint0_linear_431_6836" x1="133.91" y1="30.7434" x2="152.366" y2="33.8651" gradientUnits="userSpaceOnUse">
<stop stop-color="#89C442"/>
<stop offset="1" stop-color="#74B844"/>
</linearGradient>
<linearGradient id="paint1_linear_431_6836" x1="132.704" y1="28.7188" x2="148.63" y2="31.4125" gradientUnits="userSpaceOnUse">
<stop stop-color="#74B844"/>
<stop offset="1" stop-color="#4A9634"/>
</linearGradient>
<linearGradient id="paint2_linear_431_6836" x1="-24.8444" y1="-572.366" x2="-54.5902" y2="-562.39" gradientUnits="userSpaceOnUse">
<stop stop-color="#C1EA71"/>
<stop offset="1" stop-color="#ACDA55"/>
</linearGradient>
<linearGradient id="paint3_linear_431_6836" x1="-24.9872" y1="-570.52" x2="-50.9063" y2="-561.828" gradientUnits="userSpaceOnUse">
<stop stop-color="#ACDA55"/>
<stop offset="1" stop-color="#89C442"/>
</linearGradient>
<clipPath id="clip0_431_6836">
<rect width="180.898" height="48" fill="white"/>
</clipPath>
</defs>
</svg>
