<svg width="30" height="30" viewBox="0 0 30 30" fill="none" xmlns="http://www.w3.org/2000/svg">
<path d="M30 15C30 6.71573 23.2843 0 15 0C6.71573 0 0 6.71573 0 15C0 23.2843 6.71573 30 15 30C23.2843 30 30 23.2843 30 15Z" fill="#0D2E4C"/>
<path d="M15 23.1845C13.0312 23.1843 11.1285 22.4745 9.6406 21.1852C8.15269 19.896 7.17929 18.1136 6.89885 16.1649H15V13.8353H6.89885C7.10057 12.4291 7.66476 11.0997 8.53596 9.97762C9.40715 8.85558 10.5553 7.97957 11.8677 7.43573C13.18 6.89188 14.6113 6.69892 16.0207 6.87582C17.4302 7.05271 18.7694 7.59337 19.9067 8.44463L21.6094 6.7419C20.0541 5.49613 18.1784 4.71511 16.1986 4.48883C14.2188 4.26254 12.2153 4.6002 10.419 5.46289C8.62266 6.32559 7.10662 7.67822 6.04552 9.36495C4.98443 11.0517 4.42145 13.0039 4.42145 14.9966C4.42145 16.9893 4.98443 18.9415 6.04552 20.6282C7.10662 22.315 8.62266 23.6676 10.419 24.5303C12.2153 25.393 14.2188 25.7306 16.1986 25.5044C18.1784 25.2781 20.0541 24.497 21.6094 23.2513L19.9067 21.5485C18.4922 22.6123 16.7698 23.1865 15 23.1845Z" fill="white"/>
<path opacity="0.2" d="M23.1844 15.0002C23.1859 16.7608 22.6168 18.4745 21.5625 19.8846C21.5579 19.8902 21.5554 19.8972 21.5554 19.9045C21.5554 19.9117 21.5579 19.9188 21.5625 19.9244L23.2219 21.5838C23.2248 21.587 23.2284 21.5897 23.2325 21.5914C23.2365 21.5932 23.2409 21.5942 23.2453 21.5942C23.2497 21.5942 23.2541 21.5932 23.2581 21.5914C23.2621 21.5897 23.2658 21.587 23.2687 21.5838C24.7573 19.7132 25.5678 17.3932 25.5678 15.0025C25.5678 12.6119 24.7573 10.2919 23.2687 8.42127C23.2658 8.418 23.2621 8.41539 23.2581 8.4136C23.2541 8.41181 23.2497 8.41089 23.2453 8.41089C23.2409 8.41089 23.2365 8.41181 23.2325 8.4136C23.2284 8.41539 23.2248 8.418 23.2219 8.42127L21.5707 10.0783C21.5661 10.0839 21.5636 10.091 21.5636 10.0982C21.5636 10.1055 21.5661 10.1125 21.5707 10.1181C22.6216 11.5286 23.1877 13.2413 23.1844 15.0002Z" fill="white"/>
</svg>
