<svg width="30" height="30" viewBox="0 0 30 30" fill="none" xmlns="http://www.w3.org/2000/svg">
<path d="M15 23.1845C13.0312 23.1843 11.1285 22.4745 9.64054 21.1852C8.15263 19.896 7.17923 18.1136 6.89878 16.1649H15V13.8353H6.89878C7.10051 12.4291 7.6647 11.0997 8.5359 9.97762C9.40709 8.85558 10.5553 7.97957 11.8676 7.43573C13.1799 6.89188 14.6112 6.69892 16.0207 6.87582C17.4302 7.05271 18.7694 7.59337 19.9066 8.44463L21.6093 6.7419C20.054 5.49613 18.1784 4.71511 16.1985 4.48883C14.2187 4.26254 12.2152 4.6002 10.4189 5.46289C8.6226 6.32559 7.10656 7.67822 6.04546 9.36495C4.98437 11.0517 4.42139 13.0039 4.42139 14.9966C4.42139 16.9893 4.98437 18.9415 6.04546 20.6282C7.10656 22.315 8.6226 23.6676 10.4189 24.5303C12.2152 25.393 14.2187 25.7306 16.1985 25.5044C18.1784 25.2781 20.054 24.497 21.6093 23.2513L19.9066 21.5485C18.4921 22.6123 16.7698 23.1865 15 23.1845Z" fill="white"/>
<path opacity="0.2" d="M23.1844 15.0002C23.1859 16.7608 22.6168 18.4745 21.5625 19.8846C21.5579 19.8902 21.5554 19.8972 21.5554 19.9045C21.5554 19.9117 21.5579 19.9188 21.5625 19.9244L23.2219 21.5838C23.2248 21.587 23.2284 21.5897 23.2325 21.5914C23.2365 21.5932 23.2409 21.5942 23.2453 21.5942C23.2497 21.5942 23.2541 21.5932 23.2581 21.5914C23.2621 21.5897 23.2658 21.587 23.2687 21.5838C24.7573 19.7132 25.5678 17.3932 25.5678 15.0025C25.5678 12.6119 24.7573 10.2919 23.2687 8.42127C23.2658 8.418 23.2621 8.41539 23.2581 8.4136C23.2541 8.41181 23.2497 8.41089 23.2453 8.41089C23.2409 8.41089 23.2365 8.41181 23.2325 8.4136C23.2284 8.41539 23.2248 8.418 23.2219 8.42127L21.5707 10.0783C21.5661 10.0839 21.5636 10.091 21.5636 10.0982C21.5636 10.1055 21.5661 10.1125 21.5707 10.1181C22.6216 11.5286 23.1877 13.2413 23.1844 15.0002Z" fill="white"/>
</svg>
