<svg width="214" height="48" viewBox="0 0 214 48" fill="none" xmlns="http://www.w3.org/2000/svg">
<path d="M158.56 13.28C155.92 13.28 153.386 14.3733 151.546 16.2933V6.1333C151.546 5.8133 151.28 5.54663 150.96 5.54663H147.386C147.066 5.54663 146.8 5.8133 146.8 6.1333V33.6C146.8 33.92 147.066 34.1866 147.386 34.1866H150.96C151.28 34.1866 151.546 33.92 151.546 33.6V31.7066C153.386 33.6266 155.893 34.72 158.56 34.72C164.133 34.72 168.64 29.92 168.64 24C168.64 18.08 164.133 13.28 158.56 13.28ZM157.733 30.4266C154.346 30.4266 151.6 27.6 151.573 24.08V23.92C151.626 20.4 154.346 17.5733 157.733 17.5733C161.146 17.5733 163.893 20.4533 163.893 24C163.893 27.5466 161.12 30.4266 157.733 30.4266Z" fill="black"/>
<path d="M181.787 13.28C175.76 13.28 170.88 18.08 170.88 24C170.88 29.92 175.76 34.72 181.787 34.72C187.813 34.72 192.693 29.92 192.693 24C192.693 18.08 187.813 13.28 181.787 13.28ZM181.76 30.4267C178.347 30.4267 175.6 27.5467 175.6 24C175.6 20.4534 178.373 17.5734 181.76 17.5734C185.147 17.5734 187.92 20.4534 187.92 24C187.92 27.5467 185.147 30.4267 181.76 30.4267Z" fill="black"/>
<path d="M115.093 13.8134H111.52C111.2 13.8134 110.933 14.08 110.933 14.4V16.2934C109.093 14.3734 106.587 13.28 103.92 13.28C98.3465 13.28 93.8398 18.08 93.8398 24C93.8398 29.92 98.3465 34.72 103.92 34.72C106.56 34.72 109.093 33.6267 110.933 31.7067V33.6C110.933 33.92 111.2 34.1867 111.52 34.1867H115.093C115.413 34.1867 115.68 33.92 115.68 33.6V14.4C115.68 14.08 115.413 13.8134 115.093 13.8134ZM104.747 30.4267C101.333 30.4267 98.5865 27.5467 98.5865 24C98.5865 20.4534 101.36 17.5734 104.747 17.5734C108.133 17.5734 110.88 20.4 110.907 23.92V24.08C110.88 27.6 108.133 30.4267 104.747 30.4267Z" fill="black"/>
<path d="M132.933 13.28C130.293 13.28 127.76 14.3734 125.92 16.2934V14.4C125.92 14.08 125.653 13.8134 125.333 13.8134H121.76C121.44 13.8134 121.173 14.08 121.173 14.4V41.8667C121.173 42.1867 121.44 42.4534 121.76 42.4534H125.333C125.653 42.4534 125.92 42.1867 125.92 41.8667V31.7067C127.76 33.6267 130.266 34.72 132.933 34.72C138.506 34.72 143.013 29.92 143.013 24C143.013 18.08 138.506 13.28 132.933 13.28ZM132.106 30.4267C128.72 30.4267 125.973 27.6 125.946 24.08V23.92C126 20.4 128.72 17.5734 132.106 17.5734C135.52 17.5734 138.266 20.4534 138.266 24C138.266 27.5467 135.52 30.4267 132.106 30.4267Z" fill="black"/>
<path d="M83.1466 13.2799C80.4799 13.3065 78.0532 14.8532 76.9066 17.2799C75.5999 14.7999 72.9866 13.2532 70.1866 13.2799C67.9999 13.2799 65.9466 14.3465 64.6666 16.1065V14.3999C64.6666 14.0799 64.3999 13.8132 64.0799 13.8132H60.5066C60.1866 13.8132 59.9199 14.0799 59.9199 14.3999V33.5999C59.9199 33.9199 60.1866 34.1865 60.5066 34.1865H64.0799C64.3999 34.1865 64.6666 33.9199 64.6666 33.5999V22.1065C64.7999 19.5465 66.5866 17.4932 68.7733 17.4932C71.0399 17.4932 72.9333 19.3865 72.9333 21.8665V33.5999C72.9333 33.9199 73.1999 34.1865 73.5199 34.1865H77.1199C77.4399 34.1865 77.7066 33.9199 77.7066 33.5999L77.6799 21.6532C77.9999 19.3065 79.6799 17.4932 81.7332 17.4932C83.9999 17.4932 85.8932 19.3865 85.8932 21.8665V33.5999C85.8932 33.9199 86.1599 34.1865 86.4799 34.1865H90.0799C90.3999 34.1865 90.6666 33.9199 90.6666 33.5999L90.6399 20.3999C90.6399 16.4532 87.2799 13.2799 83.1466 13.2799Z" fill="black"/>
<path d="M211.919 33.3599L205.733 23.9466L211.866 14.6133C212.026 14.3733 211.946 14.0266 211.706 13.8666C211.626 13.8133 211.519 13.7866 211.413 13.7866H207.279C206.959 13.7866 206.666 13.9466 206.506 14.2133L202.906 20.2666L199.306 14.24C199.146 13.9733 198.853 13.8133 198.533 13.8133H194.399C194.106 13.8133 193.866 14.0533 193.866 14.3466C193.866 14.4533 193.893 14.56 193.946 14.64L200.079 23.9733L193.893 33.3866C193.733 33.6266 193.813 33.9733 194.053 34.1333C194.133 34.1866 194.239 34.2133 194.346 34.2133H198.479C198.799 34.2133 199.093 34.0533 199.253 33.7866L202.933 27.6533L206.613 33.7866C206.773 34.0533 207.066 34.2133 207.386 34.2133H211.466C211.759 34.2133 211.999 33.9733 211.999 33.68C211.999 33.5733 211.973 33.4666 211.919 33.3599Z" fill="black"/>
<path d="M25.0397 0.293213C11.9463 0.293213 1.33301 10.9065 1.33301 23.9999C1.33301 37.0932 11.9463 47.7065 25.0397 47.7065C38.133 47.7065 48.7463 37.0932 48.7463 23.9999C48.7463 10.9065 38.133 0.293213 25.0397 0.293213ZM36.293 29.8132C28.1863 37.9199 13.7063 35.3332 13.7063 35.3332C13.7063 35.3332 11.093 20.8799 19.2263 12.7465C23.733 8.23988 31.1997 8.42655 35.9197 13.1199C40.6397 17.8132 40.7997 25.3065 36.293 29.8132Z" fill="black"/>
<path d="M27.7593 14.1865L25.4393 18.9599L20.666 21.2799L25.4393 23.5999L27.7593 28.3732L30.0793 23.5999L34.8527 21.2799L30.0793 18.9599L27.7593 14.1865Z" fill="black"/>
</svg>
