<svg width="182" height="48" viewBox="0 0 182 48" fill="none" xmlns="http://www.w3.org/2000/svg">
<g clip-path="url(#clip0_430_6804)">
<path d="M73.6876 24.1764C73.6876 18.2022 71.9842 15.1351 68.5772 14.9671C67.2216 14.9032 65.898 15.1191 64.6103 15.6189C63.5827 15.9868 62.8909 16.3507 62.527 16.7186V30.9784C64.7063 32.346 66.6417 32.9818 68.3292 32.8818C71.9002 32.6459 73.6876 29.7467 73.6876 24.1764ZM77.8904 24.4243C77.8904 27.4594 77.1786 29.9787 75.747 31.9821C74.1515 34.2494 71.9402 35.417 69.113 35.481C66.9816 35.549 64.7863 34.8812 62.527 33.4816V46.4417L58.8721 45.1381V16.3707C59.4719 15.6349 60.2437 15.0031 61.1794 14.4673C63.3547 13.1997 65.9979 12.5479 69.109 12.5159L69.161 12.5679C72.0041 12.5319 74.1955 13.6995 75.735 16.0668C77.1706 18.2382 77.8904 21.0213 77.8904 24.4243Z" fill="#646464"/>
<path d="M100.228 32.9298C100.228 37.0006 99.8201 39.8197 99.0043 41.3873C98.1846 42.9548 96.625 44.2064 94.3217 45.1381C92.4543 45.8739 90.4349 46.2738 88.2675 46.3418L87.6637 44.0385C89.867 43.7386 91.4186 43.4386 92.3183 43.1387C94.0898 42.5389 95.3054 41.6192 95.9732 40.3875C96.5091 39.3839 96.773 37.4684 96.773 34.6333V33.6816C94.2737 34.8172 91.6545 35.381 88.9153 35.381C87.1159 35.381 85.5283 34.8172 84.1607 33.6816C82.6252 32.4459 81.8574 30.8784 81.8574 28.979V13.7675L85.5123 12.5159V27.8273C85.5123 29.4628 86.0402 30.7224 87.0959 31.6062C88.1515 32.4899 89.5191 32.9138 91.1946 32.8818C92.8701 32.8458 94.6656 32.198 96.573 30.9304V13.0677H100.228V32.9298Z" fill="#646464"/>
<path d="M114.495 35.2808C114.059 35.3168 113.66 35.3328 113.292 35.3328C111.224 35.3328 109.613 34.8409 108.461 33.8532C107.313 32.8655 106.738 31.5019 106.738 29.7624V15.3667H104.234V13.0674H106.738V6.96124L110.389 5.66162V13.0674H114.495V15.3667H110.389V29.6625C110.389 31.0341 110.756 32.0058 111.492 32.5736C112.124 33.0415 113.128 33.3094 114.495 33.3774V35.2808Z" fill="#646464"/>
<path d="M136.625 34.981H132.97V20.8732C132.97 19.4376 132.635 18.202 131.967 17.1703C131.195 16.0027 130.123 15.4188 128.748 15.4188C127.072 15.4188 124.977 16.3026 122.462 18.0701V34.981H118.807V1.25908L122.462 0.107422V15.4668C124.797 13.7673 127.348 12.9156 130.119 12.9156C132.055 12.9156 133.622 13.5674 134.822 14.867C136.026 16.1666 136.625 17.7861 136.625 19.7216V34.981Z" fill="#646464"/>
<path d="M156.052 23.6006C156.052 21.3052 155.616 19.4098 154.748 17.9103C153.716 16.0828 152.113 15.1191 149.945 15.0191C145.939 15.2511 143.939 18.1222 143.939 23.6246C143.939 26.1478 144.355 28.2552 145.195 29.9467C146.266 32.102 147.874 33.1657 150.017 33.1297C154.04 33.0977 156.052 29.9227 156.052 23.6006ZM160.054 23.6246C160.054 26.8916 159.219 29.6108 157.551 31.7821C155.716 34.2134 153.18 35.433 149.945 35.433C146.738 35.433 144.239 34.2134 142.436 31.7821C140.8 29.6108 139.984 26.8916 139.984 23.6246C139.984 20.5535 140.868 17.9702 142.636 15.8669C144.503 13.6355 146.958 12.5159 149.993 12.5159C153.028 12.5159 155.5 13.6355 157.403 15.8669C159.171 17.9702 160.054 20.5535 160.054 23.6246Z" fill="#646464"/>
<path d="M181.009 34.9812H177.354V20.0736C177.354 18.4381 176.862 17.1625 175.878 16.2428C174.894 15.327 173.583 14.8832 171.947 14.9192C170.212 14.9511 168.56 15.519 166.993 16.6186V34.9812H163.338V16.1668C165.441 14.6352 167.377 13.6355 169.144 13.1677C170.812 12.7318 172.283 12.5159 173.551 12.5159C174.419 12.5159 175.234 12.5998 176.002 12.7678C177.438 13.0997 178.605 13.7155 179.505 14.6192C180.509 15.6189 181.009 16.8186 181.009 18.2222V34.9812Z" fill="#646464"/>
<path d="M22.7739 1.39418C20.8935 1.40291 19.0977 1.56329 17.5175 1.84289C12.8627 2.66525 12.0175 4.38653 12.0175 7.56084V11.7531H23.0175V13.1506H12.0175H7.88933C4.69243 13.1506 1.89312 15.0721 1.01754 18.7275C0.00756011 22.9174 -0.0372379 25.532 1.01754 29.907C1.79946 33.1635 3.66679 35.4839 6.86369 35.4839H10.6457V30.4583C10.6457 26.8275 13.7871 23.6249 17.5175 23.6249H28.5047C31.5632 23.6249 34.0047 21.1067 34.0047 18.0352V7.56084C34.0047 4.57978 31.4899 2.34042 28.5047 1.84289C26.6151 1.52834 24.6544 1.38544 22.7739 1.39418ZM16.8252 4.76597C17.9615 4.76597 18.8893 5.709 18.8893 6.86853C18.8893 8.02395 17.9615 8.95828 16.8252 8.95828C15.6849 8.95828 14.7611 8.02395 14.7611 6.86853C14.7611 5.70901 15.6849 4.76597 16.8252 4.76597Z" fill="url(#paint0_linear_430_6804)"/>
<path d="M35.3766 13.1506V18.0352C35.3766 21.8222 32.1659 25.0096 28.5048 25.0096H17.5176C14.508 25.0096 12.0176 27.5854 12.0176 30.5994V41.0737C12.0176 44.0548 14.6098 45.8082 17.5176 46.6635C20.9996 47.6873 24.3386 47.8723 28.5048 46.6635C31.2741 45.8616 34.0048 44.248 34.0048 41.0737V36.8814H23.0176V35.484H34.0048H39.5048C42.7017 35.484 43.893 33.2541 45.0048 29.907C46.1532 26.4613 46.1043 23.1478 45.0048 18.7276C44.2147 15.545 42.7057 13.1506 39.5048 13.1506H35.3766ZM29.1971 39.6763C30.3374 39.6763 31.2612 40.6106 31.2612 41.766C31.2612 42.9255 30.3374 43.8686 29.1971 43.8686C28.0608 43.8686 27.133 42.9255 27.133 41.766C27.133 40.6106 28.0608 39.6763 29.1971 39.6763Z" fill="url(#paint1_linear_430_6804)"/>
</g>
<defs>
<linearGradient id="paint0_linear_430_6804" x1="0.243164" y1="1.3938" x2="25.608" y2="23.0081" gradientUnits="userSpaceOnUse">
<stop stop-color="#5A9FD4"/>
<stop offset="1" stop-color="#306998"/>
</linearGradient>
<linearGradient id="paint1_linear_430_6804" x1="28.9327" y1="41.4136" x2="19.8328" y2="28.6618" gradientUnits="userSpaceOnUse">
<stop stop-color="#FFD43B"/>
<stop offset="1" stop-color="#FFE873"/>
</linearGradient>
<clipPath id="clip0_430_6804">
<rect width="181.333" height="48" fill="white"/>
</clipPath>
</defs>
</svg>
