<svg width="162" height="48" viewBox="0 0 162 48" fill="none" xmlns="http://www.w3.org/2000/svg">
<g clip-path="url(#clip0_430_6734)">
<path d="M33.9603 26.1284L28.1042 20.3389H20.9297V27.2326L27.0409 33.3235V26.1284H33.9603Z" fill="#EE7913"/>
<path d="M97.5595 23.277V40.7582C92.7506 44.2676 85.4072 46.6718 79.1037 46.6718C65.3269 46.6718 54.8643 36.6646 54.8643 23.4722C54.8643 10.3451 65.5218 0.402588 79.6891 0.402588C86.4477 0.402588 93.3354 3.00209 97.9496 7.03095L92.1659 14.3746C88.7864 11.2554 84.1081 9.30559 79.6891 9.30559C71.6304 9.30559 65.3919 15.4792 65.3919 23.4722C65.3919 31.5303 71.6957 37.7045 79.7534 37.7045C82.4829 37.7045 85.7324 36.7296 88.6568 35.2349V23.2773H97.5595V23.277Z" fill="url(#paint0_linear_430_6734)"/>
<path d="M106.527 46.2169V0.727295H116.795V46.2169H106.527Z" fill="url(#paint1_linear_430_6734)"/>
<path d="M160.789 5.21125L156.825 13.7241C152.016 10.8647 146.297 9.0452 142.658 9.0452C139.214 9.0452 136.875 10.28 136.875 12.7495C136.875 21.1328 161.114 16.4539 161.049 32.8299C161.049 41.7329 153.316 46.5417 143.243 46.5417C135.77 46.5417 128.296 43.6823 123.163 39.3283L127.257 30.9454C131.936 35.1048 138.564 37.769 143.373 37.769C147.597 37.769 150.132 36.2093 150.132 33.4149C150.132 24.8371 125.892 29.8409 125.892 13.7244C125.892 5.47146 132.976 0.272461 143.504 0.272461C149.872 0.272139 156.24 2.22192 160.789 5.21125V5.21125Z" fill="url(#paint2_linear_430_6734)"/>
<path d="M36.8884 29.0232H29.9355V36.2086L41.7661 48H49.234V41.2282L36.8884 29.0232Z" fill="url(#paint3_linear_430_6734)"/>
<path d="M36.8887 29.0232L33.9605 26.1284H27.041V33.3235L29.9358 36.2086V29.0232H36.8887Z" fill="#F0E64A"/>
<path d="M28.0226 37.9854C26.9744 38.2266 25.8843 38.3575 24.7599 38.3575C16.7173 38.3575 9.87725 31.744 9.87725 23.169C9.87725 14.5941 16.642 8.12624 24.7599 8.12624C32.8778 8.12624 39.3418 14.5938 39.3418 23.169C39.3418 24.5637 39.1681 25.9056 38.8468 27.1767L46.2908 34.6194C48.21 31.2567 49.2837 27.3468 49.2837 23.1118C49.2837 9.89559 38.7368 0 24.6093 0C10.5466 0 0 9.83061 0 23.1118C0 36.4579 10.5469 46.4841 24.6093 46.4841C28.2397 46.4841 31.6324 45.8164 34.6715 44.6012L28.0226 37.9854Z" fill="url(#paint4_linear_430_6734)"/>
<path d="M20.9297 20.3389L49.234 47.9999V41.2279L36.8886 29.0232L33.9605 26.1284L28.1044 20.3389H20.9297Z" fill="white" fill-opacity="0.172549"/>
</g>
<defs>
<linearGradient id="paint0_linear_430_6734" x1="76.9026" y1="47.9302" x2="76.1819" y2="0.552696" gradientUnits="userSpaceOnUse">
<stop stop-color="#589632"/>
<stop offset="1" stop-color="#93B023"/>
</linearGradient>
<linearGradient id="paint1_linear_430_6734" x1="112.025" y1="47.3962" x2="111.304" y2="0.0185283" gradientUnits="userSpaceOnUse">
<stop stop-color="#589632"/>
<stop offset="1" stop-color="#93B023"/>
</linearGradient>
<linearGradient id="paint2_linear_430_6734" x1="142.351" y1="46.9346" x2="141.631" y2="-0.442804" gradientUnits="userSpaceOnUse">
<stop stop-color="#589632"/>
<stop offset="1" stop-color="#93B023"/>
</linearGradient>
<linearGradient id="paint3_linear_430_6734" x1="39.736" y1="48.6542" x2="39.0093" y2="0.878926" gradientUnits="userSpaceOnUse">
<stop stop-color="#589632"/>
<stop offset="1" stop-color="#93B023"/>
</linearGradient>
<linearGradient id="paint4_linear_430_6734" x1="25.0316" y1="48.719" x2="24.311" y2="1.34163" gradientUnits="userSpaceOnUse">
<stop stop-color="#589632"/>
<stop offset="1" stop-color="#93B023"/>
</linearGradient>
<clipPath id="clip0_430_6734">
<rect width="161.05" height="48" fill="white"/>
</clipPath>
</defs>
</svg>
