<svg width="233" height="48" viewBox="0 0 233 48" fill="none" xmlns="http://www.w3.org/2000/svg">
<g clip-path="url(#clip0_430_6760)">
<path d="M13.6117 25.3325C13.9986 25.0172 14.3854 24.7163 14.7723 24.4298C13.9914 24.2363 13.2391 24.0859 12.5299 23.9856C12.4869 24.7235 12.4726 25.4901 12.5012 26.2925C12.8523 25.9701 13.2248 25.6477 13.6117 25.3325Z" fill="#61BA9E"/>
<path d="M12.0352 31.6229C11.935 31.1429 11.849 30.6629 11.7702 30.1685C11.6914 29.6742 11.6269 29.187 11.5767 28.707C11.0179 29.2945 10.5164 29.8748 10.0723 30.4408C10.6669 30.842 11.326 31.2431 12.0352 31.6229Z" fill="#61BA9E"/>
<path d="M9.42118 31.3289C7.75193 33.7289 7.21461 35.7492 7.93103 36.6447C8.53999 37.4041 10.066 37.4471 12.1077 36.7736C12.5233 36.6375 12.9531 36.4727 13.3901 36.2865C12.9961 35.2835 12.6451 34.1874 12.3513 33.0268C11.2839 32.4966 10.2952 31.9235 9.42118 31.3289Z" fill="#61BA9E"/>
<path d="M11.4486 27.2741C11.3698 26.0849 11.3698 24.9314 11.4343 23.8568C8.54714 23.5989 6.54117 24.1434 6.13281 25.218C5.72446 26.2926 6.8564 28.0479 9.17759 29.8102C9.8367 28.972 10.5961 28.1195 11.4486 27.2741Z" fill="#61BA9E"/>
<path d="M18.8631 21.8936C17.8887 19.7801 16.7639 18.4118 15.7753 18.0249C15.5174 17.9246 15.2738 17.8959 15.0445 17.9318C14.0917 18.0822 13.2822 19.3933 12.8451 21.521C12.752 21.958 12.6804 22.4094 12.623 22.8894C13.669 23.0398 14.7795 23.2762 15.9401 23.6058C16.9359 22.9324 17.9174 22.3592 18.8631 21.8936Z" fill="#61BA9E"/>
<path d="M29.1003 2.45006C28.8638 1.7838 28.6274 1.23932 28.3767 0.616035C28.2477 0.300811 27.9683 0.186184 27.5313 0.43693C26.994 0.737826 26.471 0.988572 25.8191 1.33962C19.6364 4.67096 9.15519 11.0113 3.89668 20.1384C-0.688397 28.2913 -4.10571 42.8489 10.0794 45.6142C24.7803 52.5778 30.9343 42.2327 32.2955 28.7211C33.1767 19.9092 31.7438 9.80768 29.1003 2.45006ZM28.5629 33.9008C27.9325 35.5557 25.4609 36.2507 22.1367 35.9569C21.7283 39.3026 20.5462 41.6023 18.8053 41.8745C18.3755 41.9462 17.9456 41.8889 17.5086 41.7241C16.4698 41.3229 15.431 40.2626 14.4925 38.6148C14.2561 38.2065 14.034 37.7623 13.8191 37.2966C13.3534 37.4972 12.8949 37.6763 12.4507 37.8196C10.6597 38.4071 9.18384 38.5002 8.1522 38.099C7.71519 37.9271 7.35698 37.6763 7.08474 37.3324C5.97429 35.9498 6.61907 33.4495 8.5319 30.6841C5.86683 28.6566 4.48414 26.4716 5.11459 24.8166C5.74504 23.1617 8.20951 22.4668 11.5337 22.7605C11.591 22.2519 11.6698 21.7575 11.7701 21.2919C12.3218 18.6554 13.4179 17.0722 14.8722 16.8429C16.6131 16.5635 18.44 18.3832 19.8513 21.4351C22.9247 20.1169 25.4823 20.0023 26.5928 21.385C27.517 22.5384 27.2877 24.4513 25.948 26.7868C25.7116 27.2023 25.4465 27.6178 25.1528 28.0405C27.8179 30.068 29.1934 32.2459 28.5629 33.9008Z" fill="#61BA9E"/>
<path d="M18.6773 24.523C19.143 24.7021 19.5943 24.8884 20.0313 25.0818C19.8092 24.3009 19.5585 23.5702 19.2934 22.8967C18.6558 23.2191 17.9824 23.5917 17.3018 24.0215C17.7603 24.1791 18.2188 24.3439 18.6773 24.523Z" fill="#61BA9E"/>
<path d="M15.0015 34.1945C14.5358 34.0154 14.0845 33.8292 13.6475 33.6357C13.8696 34.4023 14.1131 35.1331 14.3854 35.8208C15.0373 35.4913 15.7107 35.1116 16.3842 34.6889C15.9257 34.5456 15.4672 34.3808 15.0015 34.1945Z" fill="#61BA9E"/>
<path d="M24.5015 28.9148C23.8424 29.7602 23.0758 30.6127 22.2305 31.4437C22.3093 32.6473 22.3093 33.7936 22.2376 34.8611C25.132 35.119 27.1379 34.5817 27.5463 33.4999C27.9546 32.4324 26.8227 30.6772 24.5015 28.9148Z" fill="#61BA9E"/>
<path d="M25.0096 26.2354C26.0914 24.3512 26.3565 22.8396 25.7475 22.0802C25.5971 21.8939 25.3965 21.7578 25.1386 21.6575C24.1499 21.2778 22.409 21.5357 20.2812 22.4456C20.6753 23.4342 21.0263 24.5232 21.3201 25.6981C22.3947 26.2354 23.3833 26.8085 24.2574 27.4032C24.5368 27.0091 24.7875 26.6151 25.0096 26.2354Z" fill="#61BA9E"/>
<path d="M21.6504 27.095C21.7435 27.5678 21.8367 28.055 21.9155 28.5493C21.9943 29.0436 22.0587 29.5308 22.1089 30.0108C22.6534 29.4377 23.162 28.8574 23.6134 28.2771C23.0116 27.883 22.3596 27.4818 21.6504 27.095Z" fill="#61BA9E"/>
<path d="M14.8154 36.8381C15.016 37.2752 15.2238 37.6835 15.4387 38.0632C16.5133 39.9474 17.6811 40.9432 18.6339 40.7856C19.7587 40.6065 20.7044 38.7366 21.0554 35.828C20.0095 35.6775 18.899 35.4411 17.7456 35.1116C16.7641 35.785 15.7754 36.3581 14.8154 36.8381Z" fill="#61BA9E"/>
<path d="M20.0747 33.3851C19.695 33.7003 19.3081 34.0012 18.9141 34.2877C19.695 34.4812 20.4472 34.6316 21.1564 34.7319C21.1994 34.0083 21.2138 33.2418 21.1923 32.425C20.8269 32.7546 20.4544 33.077 20.0747 33.3851Z" fill="#61BA9E"/>
<path d="M21.0989 30.9779C21.0416 30.2543 20.9485 29.5021 20.8267 28.7212C20.7049 27.9475 20.5545 27.1881 20.3897 26.4573C19.7306 26.1421 19.0285 25.8412 18.2906 25.5546C17.8607 25.3899 17.438 25.2394 17.0225 25.0961C16.7216 24.9958 16.4207 24.8955 16.127 24.8096C16.084 24.8382 16.041 24.874 15.998 24.9027C15.8906 24.9815 15.7831 25.0603 15.6685 25.1391C15.6542 25.1535 15.6398 25.1606 15.6255 25.1749C15.4894 25.2752 15.3533 25.3755 15.2171 25.483C15.1312 25.5475 15.0452 25.6191 14.9592 25.6836C14.8948 25.7337 14.8303 25.7839 14.7658 25.834C14.6154 25.9558 14.4577 26.0776 14.3073 26.1994C14.0064 26.4502 13.7055 26.7009 13.4189 26.9517C13.3831 26.9803 13.3545 27.009 13.3186 27.0376C13.2112 27.1379 13.0965 27.2311 12.9962 27.3314C12.9891 27.3385 12.9891 27.3385 12.9819 27.3457C12.8458 27.4675 12.7168 27.5893 12.5879 27.7111C12.5879 27.7254 12.5879 27.7326 12.5879 27.7469C12.6452 28.4705 12.7383 29.2227 12.8601 30.0036C12.9819 30.7773 13.1324 31.5367 13.2971 32.2675C13.9562 32.5827 14.6583 32.8836 15.3963 33.1702C15.8261 33.3349 16.2488 33.4854 16.6643 33.6287C16.9652 33.729 17.2661 33.8293 17.5598 33.9152C17.6028 33.8866 17.6458 33.8508 17.6888 33.8221C17.7962 33.7433 17.9037 33.6645 18.0183 33.5857C18.0327 33.5714 18.047 33.5642 18.0613 33.5499C18.1974 33.4496 18.3336 33.3493 18.4697 33.2418C18.5557 33.1773 18.6416 33.1057 18.7276 33.0412C18.7921 32.9911 18.8565 32.9409 18.921 32.8908C19.0715 32.769 19.2291 32.6472 19.3795 32.5254C19.6804 32.2746 19.9813 32.0239 20.2679 31.7731C20.3037 31.7445 20.3324 31.7158 20.3682 31.6872C20.4757 31.5869 20.5903 31.4937 20.6977 31.3934C20.7049 31.3863 20.7049 31.3863 20.7121 31.3791C20.8482 31.2573 20.9771 31.1355 21.1061 31.0137C21.1061 30.9994 21.1061 30.9923 21.0989 30.9779ZM18.9282 30.1684C18.484 31.3361 17.1945 31.9164 16.0339 31.4651C14.8804 31.0209 14.3001 29.7099 14.7443 28.5493C15.1885 27.3815 16.478 26.8012 17.6386 27.2526C18.7992 27.6967 19.3724 29.0078 18.9282 30.1684Z" fill="#61BA9E"/>
<path d="M49.117 31.028V39.625H44.3672V17.2227H50.8938C53.9385 17.2227 56.1881 17.7743 57.6496 18.8847C59.1111 19.9952 59.8418 21.6788 59.8418 23.9355C59.8418 25.2537 59.4764 26.4286 58.7529 27.4531C58.0293 28.4776 56.9976 29.2871 55.6723 29.8674C59.0466 34.9038 61.2388 38.1564 62.2633 39.625H56.9905L51.646 31.028H49.117V31.028ZM49.117 27.1665H50.6502C52.1546 27.1665 53.2579 26.9158 53.9744 26.4143C54.6908 25.9128 55.049 25.1247 55.049 24.0573C55.049 22.997 54.6836 22.2376 53.9529 21.7862C53.2221 21.3349 52.0902 21.1128 50.557 21.1128H49.117V27.1665Z" fill="#2A473E"/>
<path d="M69.9584 39.9259C67.2002 39.9259 65.0438 39.1665 63.4963 37.6406C61.9417 36.1218 61.168 33.9653 61.168 31.1785C61.168 28.3056 61.8844 26.0919 63.3172 24.5229C64.7501 22.954 66.7345 22.1731 69.2707 22.1731C71.6921 22.1731 73.5763 22.8609 74.9232 24.2435C76.2701 25.6191 76.9435 27.5247 76.9435 29.9606V32.2316H65.8963C65.9465 33.557 66.3405 34.5958 67.0784 35.3409C67.8163 36.0859 68.848 36.4585 70.1733 36.4585C71.205 36.4585 72.1793 36.351 73.0963 36.1361C74.0133 35.9212 74.9733 35.5773 75.9763 35.1116V38.7295C75.1596 39.1379 74.2856 39.4388 73.3542 39.6394C72.4229 39.84 71.2981 39.9259 69.9584 39.9259ZM69.2993 25.4973C68.3107 25.4973 67.5298 25.8125 66.971 26.4429C66.4122 27.0734 66.0898 27.9618 66.0038 29.1152H72.559C72.5375 27.9618 72.2366 27.0734 71.6563 26.4429C71.076 25.8125 70.288 25.4973 69.2993 25.4973Z" fill="#2A473E"/>
<path d="M90.3685 39.6179L89.4658 37.2895H89.344C88.556 38.2782 87.7464 38.9659 86.9154 39.3528C86.0843 39.7325 84.9954 39.9259 83.6628 39.9259C82.0151 39.9259 80.7255 39.4531 79.7798 38.5146C78.8342 37.5761 78.3613 36.2364 78.3613 34.5027C78.3613 32.683 78.9989 31.3433 80.267 30.4836C81.5351 29.6239 83.4551 29.1439 86.0198 29.0507L88.993 28.9576V28.2053C88.993 26.4716 88.1046 25.5976 86.3279 25.5976C84.9595 25.5976 83.3476 26.0131 81.4992 26.837L79.9518 23.6776C81.9219 22.6459 84.107 22.1301 86.507 22.1301C88.8067 22.1301 90.5691 22.6316 91.7942 23.6346C93.0192 24.6376 93.6354 26.1564 93.6354 28.1982V39.6179H90.3685ZM88.9858 31.6871L87.1804 31.7516C85.8192 31.7946 84.8091 32.0382 84.15 32.4895C83.4837 32.9409 83.1542 33.6215 83.1542 34.5456C83.1542 35.8639 83.9064 36.523 85.4252 36.523C86.507 36.523 87.3739 36.2149 88.0186 35.5916C88.6634 34.9683 88.993 34.1445 88.993 33.1128V31.6871H88.9858Z" fill="#2A473E"/>
<path d="M103.516 39.9259C98.1856 39.9259 95.5205 37.0029 95.5205 31.1498C95.5205 28.2412 96.2441 26.0131 97.6984 24.48C99.1456 22.9397 101.23 22.1731 103.931 22.1731C105.916 22.1731 107.692 22.56 109.261 23.3337L107.886 26.9516C107.148 26.6579 106.467 26.4143 105.83 26.2209C105.199 26.0346 104.562 25.9343 103.931 25.9343C101.503 25.9343 100.285 27.6609 100.285 31.114C100.285 34.4668 101.503 36.1361 103.931 36.1361C104.827 36.1361 105.665 36.0143 106.432 35.7779C107.198 35.5415 107.965 35.1617 108.731 34.6531V38.6507C107.972 39.1307 107.212 39.4603 106.439 39.6465C105.665 39.8328 104.691 39.9259 103.516 39.9259Z" fill="#2A473E"/>
<path d="M119.283 36.2078C120.1 36.2078 121.081 36.0287 122.227 35.6705V39.1451C121.067 39.6681 119.634 39.926 117.936 39.926C116.066 39.926 114.705 39.4531 113.853 38.5075C113 37.5618 112.57 36.1433 112.57 34.2591V25.9988H110.335V24.0215L112.907 22.4597L114.254 18.8418H117.241V22.4884H122.034V25.9988H117.241V34.2591C117.241 34.9254 117.427 35.4125 117.8 35.7278C118.173 36.043 118.667 36.2078 119.283 36.2078Z" fill="#2A473E"/>
<path d="M134.83 39.6179V17.2227H139.58V35.6991H148.664V39.6179H134.83Z" fill="#2A473E"/>
<path d="M158.056 39.9259C155.298 39.9259 153.142 39.1665 151.587 37.6406C150.033 36.1218 149.259 33.9653 149.259 31.1785C149.259 28.3056 149.975 26.0919 151.408 24.5229C152.841 22.954 154.825 22.1731 157.361 22.1731C159.783 22.1731 161.667 22.8609 163.014 24.2435C164.361 25.6262 165.034 27.5247 165.034 29.9606V32.2316H153.987C154.037 33.557 154.431 34.5958 155.169 35.3409C155.907 36.0859 156.939 36.4585 158.264 36.4585C159.296 36.4585 160.27 36.351 161.187 36.1361C162.104 35.9212 163.064 35.5773 164.067 35.1116V38.7295C163.25 39.1379 162.376 39.4388 161.445 39.6394C160.535 39.8256 159.396 39.9259 158.056 39.9259ZM157.397 25.4973C156.409 25.4973 155.628 25.8125 155.069 26.4429C154.503 27.0734 154.188 27.9618 154.102 29.1152H160.657C160.635 27.9618 160.335 27.0734 159.754 26.4429C159.174 25.8125 158.393 25.4973 157.397 25.4973Z" fill="#2A473E"/>
<path d="M178.466 39.6179L177.563 37.2895H177.442C176.654 38.2782 175.844 38.9659 175.013 39.3528C174.182 39.7325 173.093 39.9259 171.76 39.9259C170.12 39.9259 168.823 39.4531 167.877 38.5146C166.932 37.5761 166.459 36.2364 166.459 34.5027C166.459 32.683 167.097 31.3433 168.365 30.4836C169.633 29.6239 171.553 29.1439 174.117 29.0507L177.091 28.9576V28.2053C177.091 26.4716 176.202 25.5976 174.426 25.5976C173.057 25.5976 171.445 26.0131 169.597 26.837L168.049 23.6776C170.02 22.6459 172.205 22.1301 174.605 22.1301C176.904 22.1301 178.667 22.6316 179.892 23.6346C181.117 24.6376 181.733 26.1564 181.733 28.1982V39.6179H178.466ZM177.091 31.6871L175.285 31.7516C173.924 31.7946 172.914 32.0382 172.255 32.4895C171.589 32.9409 171.259 33.6215 171.259 34.5456C171.259 35.8639 172.011 36.523 173.53 36.523C174.612 36.523 175.479 36.2149 176.123 35.5916C176.775 34.9683 177.098 34.1445 177.098 33.1128V31.6871H177.091Z" fill="#2A473E"/>
<path d="M194.128 25.9988H190.08V39.6179H185.409V25.9988H182.837V23.7493L185.409 22.4955V21.2418C185.409 19.2931 185.889 17.8675 186.849 16.9648C187.809 16.0693 189.349 15.6179 191.463 15.6179C193.075 15.6179 194.515 15.8543 195.768 16.3343L194.572 19.766C193.633 19.4722 192.766 19.3218 191.964 19.3218C191.298 19.3218 190.818 19.5224 190.524 19.9093C190.23 20.3033 190.08 20.8048 190.08 21.4209V22.4955H194.128V25.9988ZM201.485 39.6179H196.814V15.7827H201.485V39.6179Z" fill="#2A473E"/>
<path d="M212.239 39.9259C209.481 39.9259 207.324 39.1665 205.77 37.6406C204.215 36.1218 203.441 33.9653 203.441 31.1785C203.441 28.3056 204.158 26.0919 205.591 24.5229C207.023 22.954 209.008 22.1731 211.544 22.1731C213.966 22.1731 215.85 22.8609 217.197 24.2435C218.544 25.6262 219.217 27.5247 219.217 29.9606V32.2316H208.17C208.22 33.557 208.614 34.5958 209.352 35.3409C210.09 36.0859 211.121 36.4585 212.447 36.4585C213.478 36.4585 214.453 36.351 215.37 36.1361C216.287 35.9212 217.247 35.5773 218.25 35.1116V38.7295C217.433 39.1379 216.559 39.4388 215.628 39.6394C214.711 39.8256 213.579 39.9259 212.239 39.9259ZM211.58 25.4973C210.591 25.4973 209.81 25.8125 209.252 26.4429C208.686 27.0734 208.37 27.9618 208.284 29.1152H214.84C214.818 27.9618 214.517 27.0734 213.937 26.4429C213.357 25.8125 212.576 25.4973 211.58 25.4973Z" fill="#2A473E"/>
<path d="M228.988 36.2078C229.805 36.2078 230.786 36.0287 231.933 35.6705V39.1451C230.772 39.6681 229.339 39.926 227.641 39.926C225.771 39.926 224.41 39.4531 223.558 38.5075C222.705 37.5618 222.275 36.1433 222.275 34.2591V25.9988H220.04V24.0215L222.612 22.4597L223.959 18.8418H226.946V22.4884H231.739V25.9988H226.946V34.2591C226.946 34.9254 227.133 35.4125 227.505 35.7278C227.885 36.043 228.372 36.2078 228.988 36.2078Z" fill="#2A473E"/>
</g>
<defs>
<clipPath id="clip0_430_6760">
<rect width="232.119" height="48" fill="white"/>
</clipPath>
</defs>
</svg>
